<?xml version="1.0" encoding="utf-8"?>
<!-- Generator: Adobe Illustrator 25.4.1, SVG Export Plug-In . SVG Version: 6.00 Build 0)  -->
<svg version="1.1" id="Layer_1" xmlns="http://www.w3.org/2000/svg" xmlns:xlink="http://www.w3.org/1999/xlink" x="0px" y="0px"
	 viewBox="0 0 80.4 101" style="enable-background:new 0 0 80.4 101;" xml:space="preserve">
<style type="text/css">
	.st0{fill:#FFFFFF;}
</style>
<g>
	<path d="M-129.7,1.6c25.1,0,50.3,0.1,75.4,0c3.8,0,5.2,0.7,5,4.8c-0.4,7.8-0.2,15.6-0.1,23.4c0,2.7-0.7,3.4-3.4,2.9
		c-4.4-0.8-9-0.8-13.4-1.7c-3.7-0.8-4.8-0.2-4.7,3.8c0.2,19.6,0,39.1,0.2,58.7c0,3.6-0.6,4.8-4.5,4.7c-9.6-0.3-19.3-0.3-29,0
		c-3.7,0.1-4.3-1.1-4.3-4.5c0.2-19.6,0-39.2,0.2-58.7c0-3.7-0.6-4.9-4.6-4c-5.5,1.2-11.2,1-16.7,2.5
		C-129.7,22.9-129.7,12.2-129.7,1.6z"/>
</g>
<g>
	<path d="M-129.4,0.8c25.1,0,50.3,0.1,75.4,0c3.8,0,5.2,0.7,5,4.8c-0.4,7.8-0.2,15.6-0.1,23.4c0,2.7-0.7,3.4-3.4,2.9
		c-4.4-0.8-9-0.8-13.4-1.7c-3.7-0.8-4.8-0.2-4.7,3.8c0.2,19.6,0,39.1,0.2,58.7c0,3.6-0.6,4.8-4.5,4.7c-9.6-0.3-19.3-0.3-29,0
		c-3.7,0.1-4.3-1.1-4.3-4.5c0.2-19.6,0-39.2,0.2-58.7c0-3.7-0.6-4.9-4.6-4c-5.5,1.2-11.2,1-16.7,2.5C-129.4,22-129.4,11.4-129.4,0.8
		z"/>
</g>
<g>
	<path class="st0" d="M0,2.2c25.1,0,50.3,0.1,75.4,0c3.8,0,5.2,0.7,5,4.8c-0.4,7.8-0.2,15.6-0.1,23.4c0,2.7-0.7,3.4-3.4,2.9
		c-4.4-0.8-9-0.8-13.4-1.7c-3.7-0.8-4.8-0.2-4.7,3.8c0.2,19.6,0,39.1,0.2,58.7c0,3.6-0.6,4.8-4.5,4.7c-9.6-0.3-19.3-0.3-29,0
		c-3.7,0.1-4.3-1.1-4.3-4.5c0.2-19.6,0-39.2,0.2-58.7c0-3.7-0.6-4.9-4.6-4C11.2,32.8,5.5,32.6,0,34C0,23.4,0,12.8,0,2.2z"/>
</g>
</svg>
