<?xml version="1.0" encoding="utf-8"?>
<!-- Generator: Adobe Illustrator 25.4.1, SVG Export Plug-In . SVG Version: 6.00 Build 0)  -->
<svg version="1.1" id="Layer_1" xmlns="http://www.w3.org/2000/svg" xmlns:xlink="http://www.w3.org/1999/xlink" x="0px" y="0px"
	 viewBox="0 0 756 101" style="enable-background:new 0 0 756 101;" xml:space="preserve">
<style type="text/css">
	.st0{fill:#2E2E2E;}
	.st1{fill:#282828;}
	.st2{fill:#FFFFFF;}
</style>
<g>
	<path d="M630.9,100.4c-4-1.1-8-1.9-11.9-3.2c-21.5-7.2-34.7-25.9-33.9-48c0.8-22.6,16.3-41.6,38.8-47.3c2.2-0.6,4.6-0.8,6.9-1.2
		c1.9-1.1,4.2,0.4,6.2-0.9c4.3,0,8.7,0,13,0c3.9,1,7.9,0.6,11.8,1.3c3.4,0.7,5.5,2.4,5.5,6c-0.1,9,0.6,17.9,1,26.8
		c0.3,6.4-1.6,7.3-6.9,3.9c-4.1-2.6-8.5-4.5-13.3-5.4c-10.9-1.9-21.1,5.1-22.5,15.4c-1.4,10.2,6.3,19,17.5,20.1
		c7.2,0.7,13.4-1.7,19.3-5.6c4.6-3,6-2.5,5.9,2.9c-0.2,9.4-1.1,18.9-1.1,28.3c0,3.1-1.9,4.8-5,5.3c-3.9,0.6-7.9,1.1-11.9,1
		c-2.1,0.2-4.3-0.5-6.4,0.5C639.6,100.4,635.3,100.4,630.9,100.4z"/>
	<path d="M0.1,1.8c25.1,0,50.3,0.1,75.4,0c3.8,0,5.2,0.7,5,4.8c-0.4,7.8-0.2,15.6-0.1,23.4c0,2.7-0.7,3.4-3.4,2.9
		c-4.4-0.8-9-0.8-13.4-1.7C60,30.4,58.9,31,58.9,35c0.2,19.6,0,39.1,0.2,58.7c0,3.6-0.6,4.8-4.5,4.7c-9.6-0.3-19.3-0.3-29,0
		c-3.7,0.1-4.3-1.1-4.3-4.5c0.2-19.6,0-39.2,0.2-58.7c0-3.7-0.6-4.9-4.6-4c-5.5,1.2-11.2,1-16.7,2.5C0.1,23,0.1,12.4,0.1,1.8z"/>
	<path d="M755.9,33.7c-6.2-0.9-12.5-1.8-18.7-2.8c-3.8-0.6-2.5,2.2-2.5,3.8c-0.1,18.7,0,37.5,0,56.2c0,7.4,0,7.4-7.2,7.4
		c-8.8,0-17.7-0.2-26.5,0.1c-3.4,0.1-4.1-1.1-4-4.2c0.1-19.7-0.1-39.5,0.2-59.2c0-4.1-1.1-4.6-4.7-3.8c-4.5,0.9-9.3,1-13.9,1.7
		c-2.3,0.3-2.9-0.3-2.9-2.5c0.1-8.6,0.1-17.3,0-25.9c-0.1-3.8,2.6-2.7,4.4-2.7c24.5-0.1,48.9,0,73.4,0c0.8,0,1.7,0,2.5-0.1
		C755.9,12.4,755.9,23,755.9,33.7z"/>
	<path class="st0" d="M636.9-0.2c-1.9,1.6-4,1.1-6.2,0.9c0.1-0.2,0.2-0.4,0.2-0.6c0-0.1,0-0.2-0.1-0.3
		C632.9-0.2,634.9-0.2,636.9-0.2z"/>
	<path class="st1" d="M650.2,99.6c-0.1,0.3-0.2,0.6-0.3,0.8c-2,0-4,0-6,0C645.8,98.7,648.1,99.3,650.2,99.6z"/>
	<path d="M86.3,98.4c3.6-3,3.8-5.8,3.8-8.9c-0.1-25.6-0.1-51.1,0-76.7c0-3.8,0.3-7.6-3.3-10.9c13,0,25.1,0.1,37.2-0.1
		c2.6,0,3,1,3,3.2c-0.1,8.5,0.1,16.9-0.1,25.4c-0.1,3,0.4,4.5,4,4.2c5.3-0.3,10.7-0.2,16,0c2.7,0.1,3.3-0.8,3.3-3.4
		c-0.1-8.6-0.1-17.3-0.1-25.9c0-1.8-0.5-3.6,2.5-3.6c12.3,0.1,24.5,0.1,38,0.1C186.5,5,187,8.7,187,12.3c0,25.6,0,51.1,0,76.7
		c0,3.2-0.1,6.3,3.9,9.3c-13.9,0-26.4,0-38.9,0c-2.5,0-1.8-1.9-1.8-3.2c0-9-0.1-17.9,0-26.9c0.1-2.8-0.8-3.7-3.6-3.6
		c-5.3,0.2-10.7,0.2-16,0c-2.8-0.1-3.7,0.7-3.7,3.6c0.2,8.6,0,17.3,0.1,25.9c0.1,3-0.4,4.4-4,4.3C111.3,98.2,99.5,98.4,86.3,98.4z"
		/>
	<path d="M241.9,98.3c-16,0-30.3,0-45.6,0c4.1-3.8,3.3-8.3,3.3-12.6c0-24.7,0-49.4,0-74.1c0-3.3,0.2-6.7-3.7-9.5
		c15.4,0,29.8,0,44.9,0c-3.9,3.4-3,7.7-3,11.9c0,25,0,50.1,0,75.1C237.8,92.3,237.5,95.5,241.9,98.3z"/>
	<path d="M348.8,98.1c4-2.9,3.5-6.7,3.5-10.3c0-25,0-50.1,0-75.1c0-3.7,0.8-7.7-4.2-11.1c22.6,1.2,43.7-1.7,64.4,2.2
		c23.2,4.3,38.7,19.9,40.6,40.4c2.8,30.8-14.1,51.5-45.6,53.7C388.3,99.2,369,98.1,348.8,98.1z M390.1,65.5c0,1.2-0.6,2.6,1.3,3.2
		c9.5,3.2,22.3-5.1,23.6-15.3c1.6-13.4-6.7-21.9-21-22c-2.9,0-4.1,0.5-4,3.8c0.3,4.8,0.1,9.6,0.1,14.4
		C390.1,54.9,390.1,60.2,390.1,65.5z"/>
	<path d="M247.3,98.4c4.3-2.9,4.1-6.1,4.1-9.3c0-25.9,0-51.8,0-77.6c0-3.3,0.1-6.6-4.2-9.8c22.5,0.7,43.5-1.2,64.3,1.2
		c20.3,2.4,33.1,20.7,28.6,40c-2.2,9.6-8.7,14.7-18.6,17.6c8.4,3.3,12.2,9.7,15.2,16.5c3,6.8,5.3,13.8,8.2,21.4
		c-12.9,0-25.4-0.1-37.9,0c-2.7,0-2.4-1.7-2.5-3.3c-0.4-6.5-1.2-12.9-3.6-18.9c-1.6-3.9-3.8-7.5-7.8-9.3c-2.7-1.2-4.6-1.4-4.4,2.8
		c0.3,8.3,0,16.6,0.2,24.9c0.1,3-0.7,4-3.9,3.9C273,98.2,261,98.4,247.3,98.4z M288.7,33.6c0.3,2.8,0,5.6,0.1,8.5
		c0,1-0.5,2.6,1.3,2.6c4.1,0.1,8.5,0.6,11.7-2.9c2.4-2.6,2.5-5.7,1.1-8.8c-1.8-3.9-5.3-4.7-9.5-4.4
		C289.1,27.3,288.4,29.7,288.7,33.6z"/>
	<path d="M472.9,98.4c5-5.1,7.1-10.4,9.2-15.9c8.8-23.5,17.8-47.1,26.7-70.6c1.2-3.3,2.4-6.5,0.5-10c16.4,0,32.4,0,48.7,0
		c-1.9,3.3-0.9,6.2,0.3,9.2c9.5,24.2,19,48.4,28.3,72.6c1.9,5,4,9.8,8.4,14.6c-5.6,0-10.3,0-14.9,0c-7.8,0-15.7-0.3-23.5,0.1
		c-4,0.2-5.4-1.3-6.4-4.9c-1.8-7.2-2.4-7.8-8.8-4.1c-6.6,3.7-12,1.7-17.6-1.3c-3.4-1.8-4.9-1.7-5.7,2.6c-1.5,7.6-1.8,7.6-9.7,7.6
		C497,98.4,485.5,98.4,472.9,98.4z M527.1,59.6c-1.1,4.5,2.1,8.8,6.8,9.2c2.4,0.2,8.5-4.1,8.1-5.8c-2.3-9.5-4.8-19-7.2-28.4
		c-0.7,0-0.6,0-1.3,0C531.3,42.9,529.2,51.2,527.1,59.6z"/>
</g>
</svg>
